<svg width="256" height="76" viewBox="0 0 256 76" fill="none" xmlns="http://www.w3.org/2000/svg">
<rect y="16" width="60" height="60" rx="10" fill="#4299E1"/>
<path d="M35.68 24.18V55.08C35.68 58.52 34.62 61.28 32.5 63.36C30.38 65.4 27.58 66.42 24.1 66.42C20.58 66.42 17.76 65.38 15.64 63.3C13.52 61.18 12.46 58.3 12.46 54.66H17.92C17.96 56.7 18.48 58.36 19.48 59.64C20.52 60.92 22.06 61.56 24.1 61.56C26.14 61.56 27.66 60.96 28.66 59.76C29.66 58.52 30.16 56.96 30.16 55.08V24.18H35.68Z" fill="#F5F5F5"/>
<path d="M80.84 37.09V52.54C80.84 54.26 80.31 55.64 79.25 56.68C78.19 57.7 76.79 58.21 75.05 58.21C73.29 58.21 71.88 57.69 70.82 56.65C69.76 55.59 69.23 54.15 69.23 52.33H71.96C71.98 53.35 72.24 54.18 72.74 54.82C73.26 55.46 74.03 55.78 75.05 55.78C76.07 55.78 76.83 55.48 77.33 54.88C77.83 54.26 78.08 53.48 78.08 52.54V37.09H80.84ZM141.311 58.21C139.931 58.21 138.691 57.97 137.591 57.49C136.511 56.99 135.661 56.31 135.041 55.45C134.421 54.57 134.101 53.56 134.081 52.42H136.991C137.091 53.4 137.491 54.23 138.191 54.91C138.911 55.57 139.951 55.9 141.311 55.9C142.611 55.9 143.631 55.58 144.371 54.94C145.131 54.28 145.511 53.44 145.511 52.42C145.511 51.62 145.291 50.97 144.851 50.47C144.411 49.97 143.861 49.59 143.201 49.33C142.541 49.07 141.651 48.79 140.531 48.49C139.151 48.13 138.041 47.77 137.201 47.41C136.381 47.05 135.671 46.49 135.071 45.73C134.491 44.95 134.201 43.91 134.201 42.61C134.201 41.47 134.491 40.46 135.071 39.58C135.651 38.7 136.461 38.02 137.501 37.54C138.561 37.06 139.771 36.82 141.131 36.82C143.091 36.82 144.691 37.31 145.931 38.29C147.191 39.27 147.901 40.57 148.061 42.19H145.061C144.961 41.39 144.541 40.69 143.801 40.09C143.061 39.47 142.081 39.16 140.861 39.16C139.721 39.16 138.791 39.46 138.071 40.06C137.351 40.64 136.991 41.46 136.991 42.52C136.991 43.28 137.201 43.9 137.621 44.38C138.061 44.86 138.591 45.23 139.211 45.49C139.851 45.73 140.741 46.01 141.881 46.33C143.261 46.71 144.371 47.09 145.211 47.47C146.051 47.83 146.771 48.4 147.371 49.18C147.971 49.94 148.271 50.98 148.271 52.3C148.271 53.32 148.001 54.28 147.461 55.18C146.921 56.08 146.121 56.81 145.061 57.37C144.001 57.93 142.751 58.21 141.311 58.21Z" fill="#4299E1"/>
<path d="M96.3882 58.27C94.8482 58.27 93.4482 57.92 92.1882 57.22C90.9482 56.52 89.9682 55.53 89.2482 54.25C88.5482 52.95 88.1982 51.45 88.1982 49.75C88.1982 48.07 88.5582 46.59 89.2782 45.31C90.0182 44.01 91.0182 43.02 92.2782 42.34C93.5382 41.64 94.9482 41.29 96.5082 41.29C98.0682 41.29 99.4782 41.64 100.738 42.34C101.998 43.02 102.988 44 103.708 45.28C104.448 46.56 104.818 48.05 104.818 49.75C104.818 51.45 104.438 52.95 103.678 54.25C102.938 55.53 101.928 56.52 100.648 57.22C99.3682 57.92 97.9482 58.27 96.3882 58.27ZM96.3882 55.87C97.3682 55.87 98.2882 55.64 99.1482 55.18C100.008 54.72 100.698 54.03 101.218 53.11C101.758 52.19 102.028 51.07 102.028 49.75C102.028 48.43 101.768 47.31 101.248 46.39C100.728 45.47 100.048 44.79 99.2082 44.35C98.3682 43.89 97.4582 43.66 96.4782 43.66C95.4782 43.66 94.5582 43.89 93.7182 44.35C92.8982 44.79 92.2382 45.47 91.7382 46.39C91.2382 47.31 90.9882 48.43 90.9882 49.75C90.9882 51.09 91.2282 52.22 91.7082 53.14C92.2082 54.06 92.8682 54.75 93.6882 55.21C94.5082 55.65 95.4082 55.87 96.3882 55.87ZM114.138 44.62C114.698 43.64 115.518 42.84 116.598 42.22C117.678 41.6 118.908 41.29 120.288 41.29C121.768 41.29 123.098 41.64 124.278 42.34C125.458 43.04 126.388 44.03 127.068 45.31C127.748 46.57 128.088 48.04 128.088 49.72C128.088 51.38 127.748 52.86 127.068 54.16C126.388 55.46 125.448 56.47 124.248 57.19C123.068 57.91 121.748 58.27 120.288 58.27C118.868 58.27 117.618 57.96 116.538 57.34C115.478 56.72 114.678 55.93 114.138 54.97V58H111.408V35.8H114.138V44.62ZM125.298 49.72C125.298 48.48 125.048 47.4 124.548 46.48C124.048 45.56 123.368 44.86 122.508 44.38C121.668 43.9 120.738 43.66 119.718 43.66C118.718 43.66 117.788 43.91 116.928 44.41C116.088 44.89 115.408 45.6 114.888 46.54C114.388 47.46 114.138 48.53 114.138 49.75C114.138 50.99 114.388 52.08 114.888 53.02C115.408 53.94 116.088 54.65 116.928 55.15C117.788 55.63 118.718 55.87 119.718 55.87C120.738 55.87 121.668 55.63 122.508 55.15C123.368 54.65 124.048 53.94 124.548 53.02C125.048 52.08 125.298 50.98 125.298 49.72ZM158.619 43.81V53.5C158.619 54.3 158.789 54.87 159.129 55.21C159.469 55.53 160.059 55.69 160.899 55.69H162.909V58H160.449C158.929 58 157.789 57.65 157.029 56.95C156.269 56.25 155.889 55.1 155.889 53.5V43.81H153.759V41.56H155.889V37.42H158.619V41.56H162.909V43.81H158.619ZM168.196 49.72C168.196 48.04 168.536 46.57 169.216 45.31C169.896 44.03 170.826 43.04 172.006 42.34C173.206 41.64 174.536 41.29 175.996 41.29C177.436 41.29 178.686 41.6 179.746 42.22C180.806 42.84 181.596 43.62 182.116 44.56V41.56H184.876V58H182.116V54.94C181.576 55.9 180.766 56.7 179.686 57.34C178.626 57.96 177.386 58.27 175.966 58.27C174.506 58.27 173.186 57.91 172.006 57.19C170.826 56.47 169.896 55.46 169.216 54.16C168.536 52.86 168.196 51.38 168.196 49.72ZM182.116 49.75C182.116 48.51 181.866 47.43 181.366 46.51C180.866 45.59 180.186 44.89 179.326 44.41C178.486 43.91 177.556 43.66 176.536 43.66C175.516 43.66 174.586 43.9 173.746 44.38C172.906 44.86 172.236 45.56 171.736 46.48C171.236 47.4 170.986 48.48 170.986 49.72C170.986 50.98 171.236 52.08 171.736 53.02C172.236 53.94 172.906 54.65 173.746 55.15C174.586 55.63 175.516 55.87 176.536 55.87C177.556 55.87 178.486 55.63 179.326 55.15C180.186 54.65 180.866 53.94 181.366 53.02C181.866 52.08 182.116 50.99 182.116 49.75ZM195.82 43.81V53.5C195.82 54.3 195.99 54.87 196.33 55.21C196.67 55.53 197.26 55.69 198.1 55.69H200.11V58H197.65C196.13 58 194.99 57.65 194.23 56.95C193.47 56.25 193.09 55.1 193.09 53.5V43.81H190.96V41.56H193.09V37.42H195.82V41.56H200.11V43.81H195.82ZM207.827 38.89C207.307 38.89 206.867 38.71 206.507 38.35C206.147 37.99 205.967 37.55 205.967 37.03C205.967 36.51 206.147 36.07 206.507 35.71C206.867 35.35 207.307 35.17 207.827 35.17C208.327 35.17 208.747 35.35 209.087 35.71C209.447 36.07 209.627 36.51 209.627 37.03C209.627 37.55 209.447 37.99 209.087 38.35C208.747 38.71 208.327 38.89 207.827 38.89ZM209.147 41.56V58H206.417V41.56H209.147ZM223.97 58.27C222.43 58.27 221.03 57.92 219.77 57.22C218.53 56.52 217.55 55.53 216.83 54.25C216.13 52.95 215.78 51.45 215.78 49.75C215.78 48.07 216.14 46.59 216.86 45.31C217.6 44.01 218.6 43.02 219.86 42.34C221.12 41.64 222.53 41.29 224.09 41.29C225.65 41.29 227.06 41.64 228.32 42.34C229.58 43.02 230.57 44 231.29 45.28C232.03 46.56 232.4 48.05 232.4 49.75C232.4 51.45 232.02 52.95 231.26 54.25C230.52 55.53 229.51 56.52 228.23 57.22C226.95 57.92 225.53 58.27 223.97 58.27ZM223.97 55.87C224.95 55.87 225.87 55.64 226.73 55.18C227.59 54.72 228.28 54.03 228.8 53.11C229.34 52.19 229.61 51.07 229.61 49.75C229.61 48.43 229.35 47.31 228.83 46.39C228.31 45.47 227.63 44.79 226.79 44.35C225.95 43.89 225.04 43.66 224.06 43.66C223.06 43.66 222.14 43.89 221.3 44.35C220.48 44.79 219.82 45.47 219.32 46.39C218.82 47.31 218.57 48.43 218.57 49.75C218.57 51.09 218.81 52.22 219.29 53.14C219.79 54.06 220.45 54.75 221.27 55.21C222.09 55.65 222.99 55.87 223.97 55.87ZM247 41.26C249 41.26 250.62 41.87 251.86 43.09C253.1 44.29 253.72 46.03 253.72 48.31V58H251.02V48.7C251.02 47.06 250.61 45.81 249.79 44.95C248.97 44.07 247.85 43.63 246.43 43.63C244.99 43.63 243.84 44.08 242.98 44.98C242.14 45.88 241.72 47.19 241.72 48.91V58H238.99V41.56H241.72V43.9C242.26 43.06 242.99 42.41 243.91 41.95C244.85 41.49 245.88 41.26 247 41.26Z" fill="black"/>
</svg>
